<svg width="151" height="35" viewBox="0 0 151 35" fill="none" xmlns="http://www.w3.org/2000/svg">
<g clip-path="url(#clip0_4_2)">
<path d="M18 32C14.525 31.125 11.6563 29.1312 9.39375 26.0187C7.13125 22.9062 6 19.45 6 15.65V6.5L18 2L30 6.5V15.65C30 19.45 28.8688 22.9062 26.6063 26.0187C24.3438 29.1312 21.475 31.125 18 32ZM18 28.85C20.6 28.025 22.75 26.375 24.45 23.9C26.15 21.425 27 18.675 27 15.65V8.5625L18 5.1875L9 8.5625V15.65C9 18.675 9.85 21.425 11.55 23.9C13.25 26.375 15.4 28.025 18 28.85Z" fill="#9B9B9B"/>
<path d="M18 23C16.3222 23 14.9028 22.7417 13.7417 22.225C12.5806 21.7083 12 21.0778 12 20.3333V13.6667C12 12.9333 12.5861 12.3056 13.7583 11.7833C14.9306 11.2611 16.3444 11 18 11C19.6556 11 21.0694 11.2611 22.2417 11.7833C23.4139 12.3056 24 12.9333 24 13.6667V20.3333C24 21.0778 23.4194 21.7083 22.2583 22.225C21.0972 22.7417 19.6778 23 18 23ZM18 15.0167C18.9889 15.0167 19.9833 14.875 20.9833 14.5917C21.9833 14.3083 22.5444 14.0056 22.6667 13.6833C22.5444 13.3611 21.9861 13.0556 20.9917 12.7667C19.9972 12.4778 19 12.3333 18 12.3333C16.9889 12.3333 15.9972 12.475 15.025 12.7583C14.0528 13.0417 13.4889 13.35 13.3333 13.6833C13.4889 14.0167 14.0528 14.3222 15.025 14.6C15.9972 14.8778 16.9889 15.0167 18 15.0167ZM18 18.3333C18.4667 18.3333 18.9167 18.3111 19.35 18.2667C19.7833 18.2222 20.1972 18.1583 20.5917 18.075C20.9861 17.9917 21.3583 17.8889 21.7083 17.7667C22.0583 17.6444 22.3778 17.5056 22.6667 17.35V15.35C22.3778 15.5056 22.0583 15.6444 21.7083 15.7667C21.3583 15.8889 20.9861 15.9917 20.5917 16.075C20.1972 16.1583 19.7833 16.2222 19.35 16.2667C18.9167 16.3111 18.4667 16.3333 18 16.3333C17.5333 16.3333 17.0778 16.3111 16.6333 16.2667C16.1889 16.2222 15.7694 16.1583 15.375 16.075C14.9806 15.9917 14.6111 15.8889 14.2667 15.7667C13.9222 15.6444 13.6111 15.5056 13.3333 15.35V17.35C13.6111 17.5056 13.9222 17.6444 14.2667 17.7667C14.6111 17.8889 14.9806 17.9917 15.375 18.075C15.7694 18.1583 16.1889 18.2222 16.6333 18.2667C17.0778 18.3111 17.5333 18.3333 18 18.3333ZM18 21.6667C18.5111 21.6667 19.0306 21.6278 19.5583 21.55C20.0861 21.4722 20.5722 21.3694 21.0167 21.2417C21.4611 21.1139 21.8333 20.9694 22.1333 20.8083C22.4333 20.6472 22.6111 20.4833 22.6667 20.3167V18.6833C22.3778 18.8389 22.0583 18.9778 21.7083 19.1C21.3583 19.2222 20.9861 19.325 20.5917 19.4083C20.1972 19.4917 19.7833 19.5556 19.35 19.6C18.9167 19.6444 18.4667 19.6667 18 19.6667C17.5333 19.6667 17.0778 19.6444 16.6333 19.6C16.1889 19.5556 15.7694 19.4917 15.375 19.4083C14.9806 19.325 14.6111 19.2222 14.2667 19.1C13.9222 18.9778 13.6111 18.8389 13.3333 18.6833V20.3333C13.3889 20.5 13.5639 20.6611 13.8583 20.8167C14.1528 20.9722 14.5222 21.1139 14.9667 21.2417C15.4111 21.3694 15.9 21.4722 16.4333 21.55C16.9667 21.6278 17.4889 21.6667 18 21.6667Z" fill="#D6D6D6"/>
<path d="M39.5928 19.9131C40.0908 20.1943 40.5947 20.4492 41.1045 20.6777C41.6201 20.9004 42.1533 21.0908 42.7041 21.249C43.2549 21.4014 43.832 21.5186 44.4355 21.6006C45.0449 21.6826 45.6924 21.7236 46.3779 21.7236C47.2041 21.7236 47.9072 21.6709 48.4873 21.5654C49.0674 21.4541 49.5391 21.3047 49.9023 21.1172C50.2715 20.9238 50.5381 20.6953 50.7021 20.4316C50.8721 20.168 50.957 19.8809 50.957 19.5703C50.957 19.0723 50.749 18.6797 50.333 18.3926C49.917 18.0996 49.2754 17.9531 48.4082 17.9531C48.0273 17.9531 47.626 17.9795 47.2041 18.0322C46.7822 18.0791 46.3545 18.1318 45.9209 18.1904C45.4932 18.249 45.0684 18.3047 44.6465 18.3574C44.2305 18.4043 43.8379 18.4277 43.4688 18.4277C42.8535 18.4277 42.2617 18.3486 41.6934 18.1904C41.1309 18.0322 40.6299 17.7949 40.1904 17.4785C39.7568 17.1621 39.4111 16.7666 39.1533 16.292C38.8955 15.8174 38.7666 15.2637 38.7666 14.6309C38.7666 14.2559 38.8164 13.8838 38.916 13.5146C39.0215 13.1455 39.1855 12.7939 39.4082 12.46C39.6367 12.1201 39.9297 11.8066 40.2871 11.5195C40.6445 11.2266 41.0752 10.9746 41.5791 10.7637C42.0889 10.5527 42.6748 10.3887 43.3369 10.2715C44.0049 10.1484 44.7637 10.0869 45.6133 10.0869C46.2285 10.0869 46.8467 10.1221 47.4678 10.1924C48.0889 10.2568 48.6924 10.3506 49.2783 10.4736C49.8701 10.5967 50.4385 10.7461 50.9834 10.9219C51.5283 11.0918 52.0352 11.2822 52.5039 11.4932L51.2822 13.7432C50.8955 13.5732 50.4795 13.418 50.0342 13.2773C49.5889 13.1309 49.123 13.0049 48.6367 12.8994C48.1504 12.7939 47.6465 12.7119 47.125 12.6533C46.6094 12.5889 46.082 12.5566 45.543 12.5566C44.7754 12.5566 44.1426 12.6123 43.6445 12.7236C43.1523 12.835 42.7598 12.9785 42.4668 13.1543C42.1738 13.3242 41.9688 13.5176 41.8516 13.7344C41.7402 13.9453 41.6846 14.1562 41.6846 14.3672C41.6846 14.7773 41.8691 15.1143 42.2383 15.3779C42.6074 15.6357 43.1699 15.7646 43.9258 15.7646C44.2305 15.7646 44.5791 15.7441 44.9717 15.7031C45.3701 15.6562 45.7861 15.6064 46.2197 15.5537C46.6592 15.501 47.1045 15.4541 47.5557 15.4131C48.0127 15.3662 48.4551 15.3428 48.8828 15.3428C49.6914 15.3428 50.4062 15.4336 51.0273 15.6152C51.6543 15.7969 52.1787 16.0576 52.6006 16.3975C53.0225 16.7314 53.3418 17.1387 53.5586 17.6191C53.7754 18.0938 53.8838 18.627 53.8838 19.2188C53.8838 20.0098 53.6992 20.7158 53.3301 21.3369C52.9668 21.9521 52.4453 22.4736 51.7656 22.9014C51.0918 23.3232 50.2773 23.6455 49.3223 23.8682C48.3672 24.085 47.3037 24.1934 46.1318 24.1934C45.3584 24.1934 44.6025 24.1436 43.8643 24.0439C43.126 23.9502 42.417 23.8154 41.7373 23.6396C41.0635 23.458 40.4189 23.2441 39.8037 22.998C39.1943 22.7461 38.6289 22.4707 38.1074 22.1719L39.5928 19.9131ZM54.6938 20.7305C54.6938 20.2324 54.8022 19.7783 55.019 19.3682C55.2358 18.958 55.561 18.6064 55.9946 18.3135C56.4282 18.0146 56.9672 17.7861 57.6118 17.6279C58.2621 17.4639 59.018 17.3818 59.8793 17.3818C60.518 17.3818 61.1889 17.4287 61.892 17.5225C62.601 17.6162 63.3305 17.7598 64.0805 17.9531C64.0512 17.625 63.9516 17.3232 63.7817 17.0479C63.6118 16.7666 63.3745 16.5264 63.0698 16.3271C62.7709 16.1221 62.4077 15.9639 61.9799 15.8525C61.558 15.7412 61.0776 15.6855 60.5385 15.6855C60.2455 15.6855 59.9233 15.7031 59.5717 15.7383C59.2202 15.7734 58.8569 15.8262 58.4819 15.8965C58.1069 15.9668 57.7348 16.0547 57.3657 16.1602C57.0024 16.2656 56.6625 16.3916 56.3461 16.5381L55.5551 14.4023C55.9477 14.2617 56.3666 14.1328 56.812 14.0156C57.2631 13.8984 57.7231 13.7988 58.1918 13.7168C58.6606 13.6289 59.1293 13.5615 59.5981 13.5146C60.0668 13.4678 60.5209 13.4443 60.9604 13.4443C62.8998 13.4443 64.3412 13.9395 65.2846 14.9297C66.228 15.9199 66.6996 17.4375 66.6996 19.4824V24H64.0981V23.0244C63.8286 23.1826 63.5327 23.332 63.2104 23.4727C62.894 23.6133 62.5483 23.7363 62.1733 23.8418C61.7983 23.9473 61.394 24.0293 60.9604 24.0879C60.5327 24.1523 60.0786 24.1846 59.5981 24.1846C58.7895 24.1846 58.0776 24.0967 57.4623 23.9209C56.853 23.7451 56.3432 23.502 55.933 23.1914C55.5229 22.8809 55.2123 22.5176 55.0014 22.1016C54.7963 21.6797 54.6938 21.2227 54.6938 20.7305ZM57.436 20.6426C57.436 20.8125 57.4799 20.9766 57.5678 21.1348C57.6557 21.2871 57.7963 21.4248 57.9897 21.5479C58.183 21.665 58.4291 21.7617 58.728 21.8379C59.0327 21.9082 59.3989 21.9434 59.8266 21.9434C60.2836 21.9434 60.726 21.9023 61.1537 21.8203C61.5815 21.7383 61.9799 21.6299 62.3491 21.4951C62.7182 21.3604 63.0522 21.2051 63.351 21.0293C63.6498 20.8535 63.8989 20.6719 64.0981 20.4844V20.0273C63.6996 19.916 63.3041 19.8223 62.9116 19.7461C62.5248 19.6699 62.1528 19.6113 61.7954 19.5703C61.4438 19.5234 61.1098 19.4912 60.7934 19.4736C60.4829 19.4561 60.2104 19.4473 59.976 19.4473C59.4897 19.4473 59.0854 19.4795 58.7631 19.5439C58.4409 19.6084 58.1801 19.6963 57.9809 19.8076C57.7817 19.9131 57.6411 20.0391 57.559 20.1855C57.477 20.332 57.436 20.4844 57.436 20.6426ZM69.8387 15.5801H68.0634V13.6289H69.8387C69.8387 12.9258 69.9384 12.3018 70.1376 11.7568C70.3368 11.2061 70.6239 10.7432 70.9989 10.3682C71.3798 9.9873 71.8397 9.69727 72.3788 9.49805C72.9237 9.29883 73.536 9.19922 74.2157 9.19922C74.6903 9.19922 75.1561 9.24609 75.6132 9.33984C76.0702 9.42773 76.4745 9.55664 76.8261 9.72656L75.9032 11.915C75.7626 11.833 75.5634 11.7568 75.3055 11.6865C75.0536 11.6162 74.7753 11.5811 74.4706 11.5811C73.8729 11.5811 73.3895 11.751 73.0204 12.0908C72.6571 12.4248 72.4637 12.9375 72.4403 13.6289H75.7186V15.5801H72.4403V24H69.8387V15.5801ZM75.7904 18.7793C75.7904 18.0762 75.9339 17.4053 76.221 16.7666C76.5081 16.1221 76.9212 15.5537 77.4603 15.0615C77.9993 14.5693 78.6585 14.1768 79.4378 13.8838C80.223 13.5908 81.1136 13.4443 82.1097 13.4443C83.0999 13.4443 83.9905 13.5938 84.7816 13.8926C85.5784 14.1855 86.2523 14.5898 86.803 15.1055C87.3597 15.6211 87.7845 16.2275 88.0775 16.9248C88.3763 17.6221 88.5257 18.3691 88.5257 19.166C88.5257 19.2656 88.5228 19.374 88.5169 19.4912C88.5169 19.6025 88.5111 19.7051 88.4993 19.7988H78.6907C78.8021 20.1094 78.9808 20.3936 79.2269 20.6514C79.4788 20.9092 79.7923 21.1318 80.1673 21.3193C80.5423 21.5068 80.9759 21.6533 81.4681 21.7588C81.9603 21.8584 82.5052 21.9082 83.1029 21.9082C83.7005 21.9082 84.2952 21.8467 84.887 21.7236C85.4788 21.5947 86.0443 21.4336 86.5833 21.2402L87.4622 23.2266C87.1224 23.3848 86.7767 23.5254 86.4251 23.6484C86.0794 23.7656 85.7161 23.8652 85.3353 23.9473C84.9603 24.0234 84.5648 24.082 84.1488 24.123C83.7386 24.1641 83.305 24.1846 82.848 24.1846C81.682 24.1846 80.6595 24.0439 79.7806 23.7627C78.9017 23.4814 78.1663 23.0977 77.5745 22.6113C76.9827 22.125 76.5374 21.5537 76.2386 20.8975C75.9398 20.2412 75.7904 19.5352 75.7904 18.7793ZM85.7659 17.7686C85.6722 17.4814 85.5257 17.2148 85.3265 16.9688C85.1331 16.7168 84.89 16.5 84.597 16.3184C84.304 16.1309 83.9642 15.9844 83.5775 15.8789C83.1907 15.7734 82.7659 15.7207 82.303 15.7207C81.8109 15.7207 81.3626 15.7764 80.9583 15.8877C80.554 15.999 80.1995 16.1484 79.8948 16.3359C79.5902 16.5234 79.3353 16.7402 79.1302 16.9863C78.931 17.2324 78.7845 17.4932 78.6907 17.7686H85.7659Z" fill="#9B9B9B"/>
<path d="M90.3025 20.8184C91.0056 21.2402 91.7791 21.5508 92.6228 21.75C93.4666 21.9492 94.3308 22.0488 95.2156 22.0488C95.8132 22.0488 96.3113 22.0078 96.7097 21.9258C97.1082 21.8438 97.4275 21.7383 97.6677 21.6094C97.908 21.4805 98.0779 21.334 98.1775 21.1699C98.2771 21.0059 98.3269 20.8389 98.3269 20.6689C98.3269 20.4229 98.2185 20.2119 98.0017 20.0361C97.7908 19.8604 97.4392 19.7725 96.947 19.7725C96.7185 19.7725 96.4724 19.7871 96.2087 19.8164C95.9451 19.8457 95.6668 19.8779 95.3738 19.9131C95.0867 19.9424 94.7849 19.9717 94.4685 20.001C94.158 20.0303 93.8416 20.0449 93.5193 20.0449C92.8162 20.0449 92.2156 19.9688 91.7175 19.8164C91.2253 19.6641 90.824 19.4561 90.5134 19.1924C90.2029 18.9287 89.9773 18.6182 89.8367 18.2607C89.6961 17.8975 89.6257 17.5078 89.6257 17.0918C89.6257 16.5645 89.7488 16.0781 89.9949 15.6328C90.241 15.1875 90.5925 14.8037 91.0496 14.4814C91.5066 14.1533 92.0574 13.8984 92.7019 13.7168C93.3523 13.5352 94.0759 13.4443 94.8728 13.4443C95.2888 13.4443 95.7224 13.4707 96.1736 13.5234C96.6306 13.5703 97.0789 13.6348 97.5183 13.7168C97.9578 13.7988 98.3796 13.8955 98.7839 14.0068C99.1882 14.1123 99.5457 14.2266 99.8562 14.3496L99.0388 16.3711C98.3767 16.125 97.7146 15.9316 97.0525 15.791C96.3962 15.6445 95.7195 15.5713 95.0222 15.5713C94.5359 15.5713 94.1228 15.6094 93.783 15.6855C93.449 15.7559 93.1765 15.8525 92.9656 15.9756C92.7546 16.0928 92.5994 16.2305 92.4998 16.3887C92.406 16.541 92.3591 16.7021 92.3591 16.8721C92.3591 16.9951 92.3826 17.1064 92.4295 17.2061C92.4822 17.3057 92.5642 17.3936 92.6755 17.4697C92.7927 17.54 92.9421 17.5957 93.1238 17.6367C93.3113 17.6719 93.5398 17.6895 93.8093 17.6895C94.0554 17.6895 94.3162 17.6748 94.5916 17.6455C94.867 17.6162 95.1541 17.5869 95.4529 17.5576C95.7517 17.5225 96.0593 17.4902 96.3757 17.4609C96.698 17.4316 97.0261 17.417 97.3601 17.417C97.9812 17.417 98.5232 17.4902 98.9861 17.6367C99.4548 17.7832 99.8416 17.9883 100.146 18.252C100.451 18.5156 100.679 18.8262 100.832 19.1836C100.984 19.541 101.06 19.9307 101.06 20.3525C101.06 20.8975 100.934 21.4043 100.682 21.873C100.43 22.3418 100.055 22.749 99.5574 23.0947C99.0593 23.4346 98.4382 23.7012 97.6941 23.8945C96.9558 24.0879 96.1003 24.1846 95.1277 24.1846C94.53 24.1846 93.9529 24.1465 93.3962 24.0703C92.8396 24 92.3093 23.9033 91.8054 23.7803C91.3015 23.6514 90.8269 23.502 90.3816 23.332C89.9421 23.1621 89.5408 22.9805 89.1775 22.7871L90.3025 20.8184ZM101.967 9.42773H104.569V14.4199C105.113 14.1211 105.72 13.8838 106.388 13.708C107.062 13.5322 107.768 13.4443 108.506 13.4443C109.362 13.4443 110.129 13.5703 110.809 13.8223C111.494 14.0742 112.074 14.4375 112.549 14.9121C113.024 15.3809 113.387 15.9521 113.639 16.626C113.897 17.2998 114.026 18.0586 114.026 18.9023V24H111.433V19.0078C111.433 18.5156 111.354 18.0674 111.196 17.6631C111.037 17.2529 110.806 16.9014 110.501 16.6084C110.196 16.3154 109.824 16.0898 109.385 15.9316C108.951 15.7676 108.459 15.6855 107.908 15.6855C107.246 15.6855 106.631 15.791 106.063 16.002C105.494 16.2129 104.996 16.4795 104.569 16.8018V24H101.967V9.42773ZM115.011 20.7305C115.011 20.2324 115.12 19.7783 115.337 19.3682C115.553 18.958 115.879 18.6064 116.312 18.3135C116.746 18.0146 117.285 17.7861 117.929 17.6279C118.58 17.4639 119.336 17.3818 120.197 17.3818C120.836 17.3818 121.506 17.4287 122.21 17.5225C122.919 17.6162 123.648 17.7598 124.398 17.9531C124.369 17.625 124.269 17.3232 124.099 17.0479C123.929 16.7666 123.692 16.5264 123.387 16.3271C123.089 16.1221 122.725 15.9639 122.298 15.8525C121.876 15.7412 121.395 15.6855 120.856 15.6855C120.563 15.6855 120.241 15.7031 119.889 15.7383C119.538 15.7734 119.174 15.8262 118.799 15.8965C118.424 15.9668 118.052 16.0547 117.683 16.1602C117.32 16.2656 116.98 16.3916 116.664 16.5381L115.873 14.4023C116.265 14.2617 116.684 14.1328 117.13 14.0156C117.581 13.8984 118.041 13.7988 118.509 13.7168C118.978 13.6289 119.447 13.5615 119.916 13.5146C120.384 13.4678 120.839 13.4443 121.278 13.4443C123.217 13.4443 124.659 13.9395 125.602 14.9297C126.546 15.9199 127.017 17.4375 127.017 19.4824V24H124.416V23.0244C124.146 23.1826 123.85 23.332 123.528 23.4727C123.212 23.6133 122.866 23.7363 122.491 23.8418C122.116 23.9473 121.712 24.0293 121.278 24.0879C120.85 24.1523 120.396 24.1846 119.916 24.1846C119.107 24.1846 118.395 24.0967 117.78 23.9209C117.171 23.7451 116.661 23.502 116.251 23.1914C115.84 22.8809 115.53 22.5176 115.319 22.1016C115.114 21.6797 115.011 21.2227 115.011 20.7305ZM117.754 20.6426C117.754 20.8125 117.798 20.9766 117.885 21.1348C117.973 21.2871 118.114 21.4248 118.307 21.5479C118.501 21.665 118.747 21.7617 119.046 21.8379C119.35 21.9082 119.716 21.9434 120.144 21.9434C120.601 21.9434 121.044 21.9023 121.471 21.8203C121.899 21.7383 122.298 21.6299 122.667 21.4951C123.036 21.3604 123.37 21.2051 123.669 21.0293C123.967 20.8535 124.216 20.6719 124.416 20.4844V20.0273C124.017 19.916 123.622 19.8223 123.229 19.7461C122.842 19.6699 122.47 19.6113 122.113 19.5703C121.761 19.5234 121.427 19.4912 121.111 19.4736C120.8 19.4561 120.528 19.4473 120.294 19.4473C119.807 19.4473 119.403 19.4795 119.081 19.5439C118.758 19.6084 118.498 19.6963 118.298 19.8076C118.099 19.9131 117.959 20.0391 117.877 20.1855C117.795 20.332 117.754 20.4844 117.754 20.6426ZM129.023 13.6289H131.624V15.123C132.198 14.6953 132.805 14.3262 133.443 14.0156C134.082 13.7051 134.718 13.4678 135.351 13.3037L136.115 15.6855C135.113 15.7852 134.232 16.0107 133.47 16.3623C132.714 16.708 132.099 17.1973 131.624 17.8301V24H129.023V13.6289ZM136.126 18.7793C136.126 18.0762 136.269 17.4053 136.556 16.7666C136.843 16.1221 137.256 15.5537 137.795 15.0615C138.334 14.5693 138.994 14.1768 139.773 13.8838C140.558 13.5908 141.449 13.4443 142.445 13.4443C143.435 13.4443 144.326 13.5938 145.117 13.8926C145.914 14.1855 146.587 14.5898 147.138 15.1055C147.695 15.6211 148.12 16.2275 148.413 16.9248C148.711 17.6221 148.861 18.3691 148.861 19.166C148.861 19.2656 148.858 19.374 148.852 19.4912C148.852 19.6025 148.846 19.7051 148.834 19.7988H139.026C139.137 20.1094 139.316 20.3936 139.562 20.6514C139.814 20.9092 140.127 21.1318 140.502 21.3193C140.877 21.5068 141.311 21.6533 141.803 21.7588C142.295 21.8584 142.84 21.9082 143.438 21.9082C144.036 21.9082 144.63 21.8467 145.222 21.7236C145.814 21.5947 146.379 21.4336 146.918 21.2402L147.797 23.2266C147.458 23.3848 147.112 23.5254 146.76 23.6484C146.415 23.7656 146.051 23.8652 145.67 23.9473C145.295 24.0234 144.9 24.082 144.484 24.123C144.074 24.1641 143.64 24.1846 143.183 24.1846C142.017 24.1846 140.995 24.0439 140.116 23.7627C139.237 23.4814 138.501 23.0977 137.91 22.6113C137.318 22.125 136.873 21.5537 136.574 20.8975C136.275 20.2412 136.126 19.5352 136.126 18.7793ZM146.101 17.7686C146.007 17.4814 145.861 17.2148 145.662 16.9688C145.468 16.7168 145.225 16.5 144.932 16.3184C144.639 16.1309 144.299 15.9844 143.913 15.8789C143.526 15.7734 143.101 15.7207 142.638 15.7207C142.146 15.7207 141.698 15.7764 141.293 15.8877C140.889 15.999 140.535 16.1484 140.23 16.3359C139.925 16.5234 139.67 16.7402 139.465 16.9863C139.266 17.2324 139.12 17.4932 139.026 17.7686H146.101Z" fill="#D6D6D6"/>
</g>
<defs>
<clipPath id="clip0_4_2">
<rect width="151" height="35" fill="white"/>
</clipPath>
</defs>
</svg>
